<svg xmlns="http://www.w3.org/2000/svg" xmlns:xlink="http://www.w3.org/1999/xlink" width="24" height="24" viewBox="0 0 24 24"><defs><style>.a{fill:#d6d6d6;opacity:0;}.b{clip-path:url(#a);}.c{fill:#7a25d0;}</style><clipPath id="a"><rect class="a" width="24" height="24"/></clipPath></defs><g class="b" transform="translate(0 0)"><g transform="translate(2.076)"><g transform="translate(0 3.726)"><path class="c" d="M17.406,25.242H4.5a1.738,1.738,0,0,1-1.736-1.736V6.7A1.738,1.738,0,0,1,4.5,4.967H6.146a.347.347,0,1,1,0,.695H4.5A1.043,1.043,0,0,0,3.463,6.7V23.5A1.043,1.043,0,0,0,4.5,24.547h12.9A1.043,1.043,0,0,0,18.448,23.5V21.862a.347.347,0,1,1,.695,0V23.5A1.738,1.738,0,0,1,17.406,25.242Z" transform="translate(-2.768 -4.967)"/></g><g transform="translate(3.473)"><path class="c" d="M22.037,20.274H9.135A1.738,1.738,0,0,1,7.4,18.537V1.736A1.738,1.738,0,0,1,9.135,0h9.449a.347.347,0,0,1,0,.695H9.135A1.043,1.043,0,0,0,8.093,1.736v16.8a1.043,1.043,0,0,0,1.042,1.042h12.9a1.043,1.043,0,0,0,1.042-1.042V5.321a.347.347,0,1,1,.695,0V18.537A1.738,1.738,0,0,1,22.037,20.274Z" transform="translate(-7.398)"/><path class="c" d="M27.038,5.712H22.2a.347.347,0,0,1-.347-.347V.521a.347.347,0,0,1,.695,0v4.5h4.5a.347.347,0,1,1,0,.695Z" transform="translate(-11.011 -0.044)"/><path class="c" d="M27.038,5.669a.348.348,0,0,1-.249-.1L21.947.59a.347.347,0,0,1,.5-.484L27.288,5.08a.347.347,0,0,1-.249.589Z" transform="translate(-11.011 0)"/></g></g></g></svg>